<svg height="512" viewBox="0 0 60 60" width="512" xmlns="http://www.w3.org/2000/svg"><g id="Page-1" fill="none" fill-rule="evenodd"><g id="126---Pause" fill-rule="nonzero"><circle id="Oval" cx="30" cy="30" fill="#02a9f4" r="29"/><path id="Shape" d="m30 1c-.5033333 0-1.0033333.01266667-1.5.038 15.4192225.79012792 27.5158989 13.5225465 27.5158989 28.962s-12.0966764 28.1718721-27.5158989 28.962c.4973333.0253333.9973333.038 1.5.038 16.0162576-.0000002 28.9999996-12.9837424 28.9999996-29s-12.983742-28.99999976-28.9999996-29z" fill="#0377bc"/><circle id="Oval" cx="30" cy="30" fill="#f5f5f5" r="25"/><path id="Shape" d="m30 5c-.5 0-1 .019-1.5.049 13.1671239.83401357 23.4196519 11.7564891 23.4196519 24.95s-10.252528 24.1159864-23.4196519 24.95c.5.03 1 .049 1.5.049 13.7193264-.1227131 24.7763954-11.2791248 24.7763954-24.999s-11.057069-24.87628693-24.7763954-24.999z" fill="#cfd8dc"/><rect id="Rectangle-path" fill="#02a9f4" height="18" rx="1" width="5" x="22" y="21"/><rect id="Rectangle-path" fill="#02a9f4" height="18" rx="1" width="5" x="33" y="21"/><g fill="#000"><path id="Shape" d="m30 0c-16.5685425 0-30 13.4314575-30 30s13.4314575 30 30 30 30-13.4314575 30-30c-.018737-16.5607751-13.4392249-29.98126296-30-30zm0 58c-15.463973 0-28-12.536027-28-28s12.536027-28 28-28 28 12.536027 28 28c-.0176345 15.4566626-12.5433374 27.9823655-28 28z"/><path id="Shape" d="m29 51c0 .5522847.4477153 1 1 1 1.7650199.0010376 3.5237217-.2108259 5.238-.631.3590181-.0734995.6490751-.3374891.7559582-.6880204.1068831-.3505314.0134692-.7314479-.243459-.9927601-.2569282-.2613123-.6362098-.3611571-.9884992-.2602195-1.5586296.3810627-3.1574646.573111-4.762.572-.5522847 0-1 .4477153-1 1z"/><path id="Shape" d="m40 49.463c.1670214-.0001104.3313552-.0420533.478-.122 1.1038885-.6014424 2.1546691-1.2956066 3.141-2.075.396999-.3519542.4500381-.9526847.1208486-1.3687547-.3291896-.41607-.9260112-.5026387-1.3598486-.1972453-.8977083.709308-1.8541604 1.340921-2.859 1.888-.3981783.2202915-.5974179.681636-.484784 1.1225304.1126338.4408945.5087357.7501491.963784.7524696z"/><path id="Shape" d="m47.809 42.9c2.7325075-3.7452972 4.2005163-8.2638639 4.191-12.9 0-.5522847-.4477153-1-1-1s-1 .4477153-1 1c.0093175 4.2148407-1.3249116 8.3229635-3.809 11.728-.2932003.4467484-.1833582 1.0450717.2494062 1.358545s1.0355133.2313161 1.3685938-.186545z"/><path id="Shape" d="m30 4c-3.5800019-.00722696-7.1221344.7325338-10.4 2.172-.3515292.12617922-.603445.43773808-.653235.80789332-.04979.37015525.1108452.73720681.4165381.95178968s.7054884.24092888 1.0366969.068317c3.0261195-1.32694271 6.2957436-2.0081144 9.6-2 13.254834 0 24 10.745166 24 24s-10.745166 24-24 24-24-10.745166-24-24c-.0081144-3.3042564.67305729-6.5738805 2-9.6.1561038-.3294859.12051515-.7178184-.09287666-1.0134419-.21339182-.2956236-.57076379-.4516812-.93264332-.4072679-.36187952.0444134-.67090802.2822581-.80648002.6207098-1.43809177 3.2781616-2.1764877 6.8202823-2.168 10.4 0 14.3594035 11.6405965 26 26 26s26-11.6405965 26-26-11.6405965-26-26-26z"/><path id="Shape" d="m10.8 15c.2965689.0001361.5778994-.1313712.768-.359.6115454-.7309245 1.2649763-1.4257583 1.957-2.081.401511-.3796958.4191957-1.012989.0395-1.4145-.3796958-.401511-1.012989-.4191958-1.4145-.0395-.7489417.7091305-1.4558127 1.4614123-2.117 2.253-.24877983.2978918-.30272637.7128276-.13838835 1.0644295.16433805.351602.51727645.5763606.90538835.5765705z"/><path id="Shape" d="m26 40c1.1045695 0 2-.8954305 2-2v-16c0-1.1045695-.8954305-2-2-2h-3c-1.1045695 0-2 .8954305-2 2v16c0 1.1045695.8954305 2 2 2zm-3-18h3v16h-3z"/><path id="Shape" d="m37 40c1.1045695 0 2-.8954305 2-2v-16c0-1.1045695-.8954305-2-2-2h-3c-1.1045695 0-2 .8954305-2 2v16c0 1.1045695.8954305 2 2 2zm-3-18h3v16h-3z"/></g></g></g></svg>