<?xml version="1.0" encoding="iso-8859-1"?>
<!-- Generator: Adobe Illustrator 19.0.0, SVG Export Plug-In . SVG Version: 6.00 Build 0)  -->
<svg version="1.1" id="Capa_1" xmlns="http://www.w3.org/2000/svg" xmlns:xlink="http://www.w3.org/1999/xlink" x="0px" y="0px"
	 viewBox="0 0 512.001 512.001" style="enable-background:new 0 0 512.001 512.001;" xml:space="preserve">
<g>
	<g>
		<path d="M317.005,0.006c-107.521,0-194.996,87.475-194.996,194.996c0,48.373,17.712,92.683,46.982,126.801l-12.577,12.577
			c-16.37-7.839-37.095-5.326-51.223,8.802l-91.998,91.998c-17.59,17.589-17.592,46.043,0,63.634
			c8.5,8.501,19.8,13.183,31.816,13.183c12.017,0,23.317-4.682,31.817-13.183l91.998-91.998
			c13.875-13.874,16.796-34.53,8.802-51.223l12.577-12.577c34.118,29.27,78.428,46.983,126.801,46.983
			c107.521,0,194.996-87.475,194.996-194.996S424.526,0.006,317.005,0.006z M147.612,385.602L55.614,477.6
			c-5.848,5.847-15.362,5.847-21.209,0c-5.865-5.866-5.866-15.342,0-21.209l91.998-91.998c5.844-5.844,15.35-5.847,21.199-0.009
			c0.003,0.003,0.006,0.007,0.009,0.01c0.003,0.003,0.007,0.006,0.01,0.009C153.46,370.253,153.455,379.758,147.612,385.602z
			 M317.004,359.998c-45.467,0-86.697-18.487-116.57-48.336c-0.015-0.015-0.028-0.032-0.043-0.047
			c-0.015-0.015-0.032-0.028-0.047-0.043c-29.85-29.873-48.336-71.104-48.336-116.571c-0.001-90.979,74.017-164.997,164.996-164.997
			s164.997,74.018,164.997,164.997S407.983,359.998,317.004,359.998z"/>
	</g>
</g>
<g>
	<g>
		<path d="M402.359,90.446l-119.998,29.999c-6.677,1.669-11.362,7.669-11.362,14.552v77.578c-4.695-1.665-9.742-2.58-15-2.58
			c-24.812,0-44.999,20.187-44.999,44.999s20.187,44.999,44.999,44.999s44.999-20.187,44.999-44.999V146.708l89.998-22.5v58.368
			c-4.695-1.665-9.742-2.58-15-2.58c-24.813,0-44.999,20.187-44.999,44.999s20.187,44.999,44.999,44.999
			s44.999-20.187,44.999-44.999V104.998C420.997,95.255,411.829,88.081,402.359,90.446z M256,269.994c-8.271,0-15-6.729-15-15
			c0-8.271,6.729-15,15-15c8.271,0,15,6.729,15,15C271,263.265,264.271,269.994,256,269.994z M375.998,239.995
			c-8.271,0-15-6.729-15-15s6.729-15,15-15c8.271,0,15,6.729,15,15S384.269,239.995,375.998,239.995z"/>
	</g>
</g>
<g>
</g>
<g>
</g>
<g>
</g>
<g>
</g>
<g>
</g>
<g>
</g>
<g>
</g>
<g>
</g>
<g>
</g>
<g>
</g>
<g>
</g>
<g>
</g>
<g>
</g>
<g>
</g>
<g>
</g>
</svg>
